<?xml version="1.0" encoding="utf-8"?>
<!--
The contents of this file are subject to the CYPHON Proprietary Non-
Commercial Registered User Use License Agreement (the "Agreement”). You
may not use this file except in compliance with the Agreement, a copy
of which may be found at https://github.com/dunbarcyber/cyclops/. The
developer of the CYPHON technology and platform is Dunbar Security
Systems, Inc.

The CYPHON technology or platform are distributed under the Agreement on
an “AS IS” basis, WITHOUT WARRANTY OF ANY KIND, either express or
implied. See the Agreement for specific terms.

Copyright (C) 2017 Dunbar Security Solutions, Inc. All Rights Reserved.

Contributor/Change Made By: ________________. [Only apply if changes
are made]
-->
<!-- Generator: Adobe Illustrator 19.2.1, SVG Export Plug-In . SVG Version: 6.00 Build 0)  -->
<svg version="1.1" id="Layer_1" xmlns="http://www.w3.org/2000/svg" xmlns:xlink="http://www.w3.org/1999/xlink" x="0px" y="0px"
	 viewBox="0 0 401.9 136.8" style="enable-background:new 0 0 401.9 136.8;" xml:space="preserve">
<style type="text/css">
	.st0{fill:#00ADBB;}
	.st1{opacity:0.6;fill:#00ADBB;enable-background:new    ;}
	.st2{fill:#FFFFFF;}
</style>
<g>
	<g>
		<rect x="71.2" y="33.3" class="st0" width="11" height="11.1"/>
		<rect x="116.5" y="8.8" class="st0" width="11" height="35.6"/>
		<rect x="86.3" y="22.2" class="st0" width="11" height="22.2"/>
		<rect x="101.4" class="st0" width="11" height="44.4"/>
	</g>
	<polygon class="st1" points="99.3,89.1 87.6,52.8 112.1,52.8 	"/>
	<path class="st0" d="M127.6,52.8l-23.7,67.3c-1.5,4.3-3.2,7.7-5.2,10.1c-1.9,2.4-4.2,4.1-6.7,5.1s-5.7,1.5-9.5,1.5
		c-3.3,0-6.3-0.4-9-1.3v-13.6c2.1,0.5,4.2,0.8,6.3,0.8c2.7,0,4.8-0.5,6.5-1.6c1.6-1.1,3-3.2,4.1-6.4l1.2-3.6L71.3,52.8h16.3L99.3,89
		l12.8-36.2H127.6z"/>
	<g>
		<path class="st2" d="M10.2,101.8C3.4,94.6,0,84.6,0,72c0-7.7,1.5-14.6,4.6-20.8s7.6-11,13.7-14.6c6.1-3.6,13.5-5.4,22.2-5.4
			c3.6,0,6.9,0.3,9.8,0.9c2.9,0.6,5.9,1.6,9.2,2.9v14.3c-5.8-2.8-12-4.2-18.5-4.2c-4.8,0-9,1.2-12.7,3.5c-3.6,2.3-6.5,5.5-8.5,9.5
			c-2,4.1-3,8.6-3,13.7c0,8.1,2.1,14.6,6.3,19.5s10,7.3,17.4,7.3c3.4,0,6.7-0.5,10-1.5s6.7-2.5,10.4-4.4l4.9,13.5
			c-4,2.1-8.2,3.6-12.6,4.7s-8.6,1.6-12.6,1.6C27,112.7,16.9,109.1,10.2,101.8z"/>
		<path class="st2" d="M182.9,54.6c4,2.3,7.1,5.8,9.3,10.4s3.4,10.3,3.4,16.9c0,6.7-1.1,12.3-3.4,16.9c-2.2,4.6-5.4,8.1-9.3,10.4
			c-4,2.3-8.6,3.5-13.7,3.5c-5.4,0-10.7-2-15.9-5.9v28.3h-15.9V52.8h15.9v4.3c5.1-4,10.4-6,15.9-6C174.3,51.2,178.9,52.3,182.9,54.6
			z M175.7,94.3c2.2-2.8,3.4-6.9,3.4-12.4c0-5.4-1.1-9.5-3.4-12.3c-2.2-2.8-5.5-4.2-9.9-4.2c-4.1,0-8.3,1.5-12.6,4.6v23.7
			c4.3,3.2,8.5,4.7,12.6,4.7C170.2,98.6,173.5,97.2,175.7,94.3z"/>
		<path class="st2" d="M257,57.4c3.8,3.9,5.6,10.1,5.6,18.6v34.9h-15.9V76.1c0-3.4-0.8-6-2.3-7.7s-4.1-2.5-7.8-2.5
			c-4.4,0-8.8,1.8-13.2,5.5V111h-15.9V23.6h15.9v34.3c5.1-4.2,10.6-6.3,16.6-6.3C247.6,51.6,253.3,53.5,257,57.4z"/>
		<path class="st2" d="M287.8,108.7c-4.6-2.7-8.1-6.3-10.4-11c-2.3-4.6-3.5-9.9-3.5-15.7c0-5.8,1.2-11,3.5-15.6s5.8-8.3,10.4-11
			s10.2-4.1,16.7-4.1s12.1,1.4,16.6,4.1c4.5,2.7,8,6.4,10.3,11s3.5,9.9,3.5,15.6c0,5.8-1.2,11.1-3.5,15.7s-5.7,8.3-10.3,11
			c-4.5,2.7-10.1,4-16.6,4S292.4,111.4,287.8,108.7z M314.8,94.6c2.3-3,3.5-7.2,3.5-12.6s-1.2-9.5-3.5-12.5s-5.7-4.5-10.2-4.5
			s-8,1.5-10.4,4.5s-3.6,7.2-3.6,12.5c0,5.4,1.2,9.6,3.6,12.6s5.8,4.5,10.4,4.5C309,99.1,312.4,97.6,314.8,94.6z"/>
		<path class="st2" d="M396.3,57.4c3.8,3.9,5.6,10.1,5.6,18.6v34.9H386V76.1c0-3.4-0.8-6-2.3-7.7s-4.1-2.5-7.8-2.5
			c-4.4,0-8.8,1.8-13.2,5.5V111h-15.9V52.8h15.9v5.1c5.1-4.2,10.6-6.3,16.6-6.3C386.8,51.6,392.5,53.5,396.3,57.4z"/>
	</g>
</g>
</svg>
